<svg id="Layer_1" data-name="Layer 1" xmlns="http://www.w3.org/2000/svg" xmlns:xlink="http://www.w3.org/1999/xlink" viewBox="0 0 198 126"><defs><style>.cls-1,.cls-4{fill:none;}.cls-2{clip-path:url(#clip-path);}.cls-3{fill:#ea521b;}.cls-4{stroke:#f8893c;stroke-miterlimit:10;stroke-width:2.47px;}.cls-5{fill:#414042;}.cls-6{fill:#f16a27;}.cls-7{fill:#00a0ad;}</style><clipPath id="clip-path"><path class="cls-1" d="M70.48,44.68V64.85l29.64,10.53a11.85,11.85,0,0,0,7.93,0l29.73-10.53v-20L108,34.34a11.85,11.85,0,0,0-7.87,0Z"/></clipPath></defs><title>SC_CW_Logos_WEB</title><g class="cls-2"><path class="cls-3" d="M70.48,44.68V64.85l29.64,10.53a11.85,11.85,0,0,0,7.93,0l29.73-10.53v-20L108,34.34a11.85,11.85,0,0,0-7.87,0Z"/><path class="cls-4" d="M66.64,49.48,98.12,60.67a17.78,17.78,0,0,0,11.91,0l33-11.74"/><path class="cls-5" d="M133.13,45.3,108,36.4a11.85,11.85,0,0,0-7.87,0l-25,8.74,25,8.87A11.85,11.85,0,0,0,108,54Z"/></g><polygon class="cls-6" points="85.54 43.92 107.42 51.33 111.95 49.96 89.72 42.45 85.54 43.92"/><polygon class="cls-6" points="99.84 46.29 118.84 47.9 124.4 46.05 104.61 44.61 99.84 46.29"/><polygon class="cls-6" points="95.11 40.12 100.63 46.09 105.16 44.71 99.29 38.64 95.11 40.12"/><path class="cls-5" d="M50.49,110.36l-1.43-4.49c-.37-1.2-.68-2.24-1-3.26-.84,1.88-2.06,4.46-3.31,7a1.41,1.41,0,0,1-1.48.92,1.39,1.39,0,0,1-1.48-.92l-1.46-3c-.76-1.56-1.33-2.76-1.85-4-.31,1-.6,2.06-1,3.26l-1.43,4.49h-2.5l3.2-9.86a1.49,1.49,0,0,1,1.44-1.15,1.56,1.56,0,0,1,1.43.89l1.64,3.24c.86,1.69,1.48,3,2,4.19.55-1.22,1.17-2.48,2-4.17L47,100.24a1.53,1.53,0,0,1,1.41-.89,1.5,1.5,0,0,1,1.46,1.15L53,110.36Z"/><path class="cls-5" d="M54.26,110.36V99.51h12l-1.65,2.16h-7.8V104h8.9l-1.46,1.88H56.82v2.38h9.52l-1.65,2.14Z"/><path class="cls-5" d="M83.57,110.36l-1.43-4.49c-.37-1.2-.68-2.24-1-3.26-.84,1.88-2.06,4.46-3.31,7a1.41,1.41,0,0,1-1.48.92,1.39,1.39,0,0,1-1.48-.92l-1.46-3c-.76-1.56-1.33-2.76-1.85-4-.31,1-.6,2.06-1,3.26l-1.43,4.49H66.7l3.2-9.86a1.49,1.49,0,0,1,1.44-1.15,1.56,1.56,0,0,1,1.43.89l1.64,3.24c.86,1.69,1.48,3,2,4.19.55-1.22,1.17-2.48,2-4.17l1.64-3.26a1.53,1.53,0,0,1,1.41-.89A1.5,1.5,0,0,1,83,100.5l3.13,9.86Z"/><path class="cls-7" d="M95.12,110.36c-3.67,0-6.37-2.38-6.37-5.53s2.71-5.32,6.37-5.32h7.25l-1.65,2.16h-5.6c-2,0-3.83,1.15-3.83,3.28,0,2.56,2.37,3.28,5.26,3.28h5.82l-1.65,2.14Z"/><path class="cls-7" d="M103.51,110.36V99.51h2.55v8.71h8.73l-1.67,2.14Z"/><path class="cls-7" d="M122.74,110.54c-5.06,0-7.61-1.74-7.61-5.61s2.55-5.6,7.61-5.6,7.61,1.72,7.61,5.6S127.8,110.54,122.74,110.54Zm0-9.05c-3.62,0-5.06.75-5.06,3.44s1.44,3.47,5.06,3.47,5-.76,5-3.47S126.34,101.49,122.74,101.49Z"/><path class="cls-7" d="M143,99.51h2.56v6.11q0,4.91-6.52,4.91c-5,0-7.22-1.64-7.22-4.91V99.51h2.55v6.11c0,2,1.05,2.79,4.67,2.79,3.16,0,4-.79,4-2.79Z"/><path class="cls-7" d="M147.45,110.36V103.6H150v4.62h4.43c2.17,0,3.78-1.35,3.78-3.28s-1.62-3.28-3.78-3.28h-7l1.62-2.16h5.37c3.65,0,6.31,2.19,6.31,5.32s-2.69,5.53-6.31,5.53Z"/><path class="cls-5" d="M140.35,85.6l1-.06a25,25,0,0,0,3.42-49.39A33.41,33.41,0,0,0,112.5,11a33.08,33.08,0,0,0-30,18.91A18.51,18.51,0,0,0,54,45.54a18.37,18.37,0,0,0,.27,3.16,18.52,18.52,0,0,0,1.94,36.93h60.4a1.72,1.72,0,1,0,0-3.43H56.26a15.08,15.08,0,0,1,0-30.16l2.53,0-.67-2.24a15.08,15.08,0,0,1,24-16l1.81,1.49.87-2.18A29.81,29.81,0,0,1,141.65,38l.24,1.14,1.14.2a21.59,21.59,0,0,1-3.7,42.87H113.1a1.72,1.72,0,1,0,0,3.43h26.23Z"/></svg>